<svg id="visual" viewBox="0 0 900 600" width="900" height="600" xmlns="http://www.w3.org/2000/svg" xmlns:xlink="http://www.w3.org/1999/xlink" version="1.1"><rect width="900" height="600" fill="#322D2A"></rect><g><g transform="translate(338 412)"><path d="M90.9 -28.3C104.3 11.7 92.3 61.2 60.9 84C29.5 106.9 -21.4 103.1 -53.3 78.7C-85.2 54.2 -98.1 9.1 -86.1 -29C-74.1 -67.1 -37 -98.2 0.8 -98.5C38.7 -98.7 77.5 -68.3 90.9 -28.3Z" stroke="#F7760E" fill="none" stroke-width="10"></path></g><g transform="translate(778 406)"><path d="M63.2 -21.4C71.5 5.2 60.8 37 39.1 52.5C17.4 67.9 -15.2 66.9 -36.1 51.3C-57 35.7 -66.2 5.6 -58.2 -20.4C-50.3 -46.4 -25.1 -68.2 1.1 -68.6C27.4 -69 54.9 -47.9 63.2 -21.4Z" stroke="#F7760E" fill="none" stroke-width="10"></path></g><g transform="translate(109 159)"><path d="M53.7 -18C62 7.9 55.7 37.9 35.6 53.6C15.5 69.2 -18.3 70.5 -41.1 54.4C-63.9 38.3 -75.7 5 -67.1 -21.5C-58.4 -48 -29.2 -67.6 -3.2 -66.5C22.8 -65.5 45.5 -43.8 53.7 -18Z" stroke="#F7760E" fill="none" stroke-width="10"></path></g></g></svg>