<svg id="visual" viewBox="0 0 900 600" width="900" height="600" xmlns="http://www.w3.org/2000/svg" xmlns:xlink="http://www.w3.org/1999/xlink" version="1.1"><rect width="900" height="600" fill="#322D2A"></rect><g><g transform="translate(6 555)"><path d="M96.3 -31.7C107.2 2.1 86.2 45.9 51.5 71.2C16.8 96.5 -31.6 103.3 -61.5 82.2C-91.3 61 -102.6 12 -89.3 -25.2C-76 -62.4 -38 -87.8 2.4 -88.6C42.7 -89.3 85.5 -65.5 96.3 -31.7Z" stroke="#F7760E" fill="none" stroke-width="10"></path></g><g transform="translate(284 456)"><path d="M78.2 -24.7C88.8 7 76 47.1 47.7 68.2C19.4 89.4 -24.5 91.7 -54.3 70.9C-84.1 50.2 -99.8 6.3 -88.5 -26.6C-77.1 -59.6 -38.5 -81.6 -2.3 -80.8C33.8 -80.1 67.7 -56.5 78.2 -24.7Z" stroke="#F7760E" fill="none" stroke-width="10"></path></g><g transform="translate(176 34)"><path d="M44 -14.1C50.4 5.6 44.6 29.5 28.2 42.2C11.8 54.9 -15.1 56.4 -32.4 44C-49.7 31.5 -57.4 5.2 -50.4 -15.3C-43.4 -35.8 -21.7 -50.4 -1.5 -49.9C18.8 -49.4 37.5 -33.9 44 -14.1Z" stroke="#F7760E" fill="none" stroke-width="10"></path></g></g></svg>