<svg id="visual" viewBox="0 0 900 600" width="900" height="600" xmlns="http://www.w3.org/2000/svg" xmlns:xlink="http://www.w3.org/1999/xlink" version="1.1"><rect width="900" height="600" fill="#322D2A"></rect><g><g transform="translate(835 254)"><path d="M87 -27.8C98.9 8.3 85.1 53.3 53.7 76.8C22.2 100.4 -26.9 102.5 -60.3 79.1C-93.7 55.8 -111.4 6.9 -98.7 -30.3C-86.1 -67.5 -43 -93.1 -2.7 -92.2C37.5 -91.3 75.1 -63.9 87 -27.8Z" stroke="#F7760E" fill="none" stroke-width="10"></path></g><g transform="translate(193 483)"><path d="M78.8 -22.3C90.9 11.6 81.7 55.7 52.4 78.5C23.1 101.4 -26.4 102.9 -54.7 81C-82.9 59.1 -90 13.8 -77.4 -20.8C-64.7 -55.5 -32.4 -79.4 0.5 -79.6C33.4 -79.7 66.8 -56.1 78.8 -22.3Z" stroke="#F7760E" fill="none" stroke-width="10"></path></g><g transform="translate(504 111)"><path d="M52.8 -17.9C59.8 4.5 51 31.3 30.7 47.2C10.4 63.1 -21.4 68.1 -41.7 54.1C-62.1 40.1 -70.9 7.1 -62.1 -17.9C-53.2 -42.8 -26.6 -59.7 -1.9 -59.1C22.9 -58.5 45.7 -40.4 52.8 -17.9Z" stroke="#F7760E" fill="none" stroke-width="10"></path></g></g></svg>