<svg id="visual" viewBox="0 0 900 600" width="900" height="600" xmlns="http://www.w3.org/2000/svg" xmlns:xlink="http://www.w3.org/1999/xlink" version="1.1"><rect width="900" height="600" fill="#322D2A"></rect><g><g transform="translate(527 157)"><path d="M90.9 -34.6C102.3 5.4 85.2 49.6 52.7 73.5C20.2 97.3 -27.8 100.8 -61.1 78C-94.5 55.3 -113.2 6.2 -100.5 -35.5C-87.9 -77.2 -43.9 -111.6 -2.1 -110.9C39.8 -110.2 79.6 -74.5 90.9 -34.6Z" stroke="#F7760E" fill="none" stroke-width="10"></path></g><g transform="translate(715 435)"><path d="M61.3 -18.8C70.1 7 61.3 39.7 40.7 54.2C20.1 68.7 -12.3 65.1 -32.3 49.3C-52.4 33.6 -60.1 5.8 -52.7 -18.2C-45.2 -42.2 -22.6 -62.4 1.8 -63C26.3 -63.6 52.6 -44.6 61.3 -18.8Z" stroke="#F7760E" fill="none" stroke-width="10"></path></g><g transform="translate(841 45)"><path d="M82.1 -27.2C95 13.1 86.3 59.9 57 82.1C27.7 104.2 -22.1 101.6 -53.5 77.8C-84.8 54.1 -97.7 9.1 -85.7 -30C-73.7 -69 -36.9 -102 -1.1 -101.7C34.6 -101.3 69.2 -67.5 82.1 -27.2Z" stroke="#F7760E" fill="none" stroke-width="10"></path></g></g></svg>